<?xml version="1.0" encoding="UTF-8" standalone="no"?>
<!-- Created with Inkscape (http://www.inkscape.org/) -->

<svg
   xmlns:dc="http://purl.org/dc/elements/1.1/"
   xmlns:cc="http://creativecommons.org/ns#"
   xmlns:rdf="http://www.w3.org/1999/02/22-rdf-syntax-ns#"
   xmlns:svg="http://www.w3.org/2000/svg"
   xmlns="http://www.w3.org/2000/svg"
   xmlns:sodipodi="http://sodipodi.sourceforge.net/DTD/sodipodi-0.dtd"
   xmlns:inkscape="http://www.inkscape.org/namespaces/inkscape"
   width="195.33818mm"
   height="105.37247mm"
   viewBox="0 0 195.33818 105.37247"
   version="1.1"
   id="svg8"
   inkscape:version="0.92.2 5c3e80d, 2017-08-06"
   sodipodi:docname="Grids-nonintersecting-hyperbolas.svg">
  <defs
     id="defs2" />
  <sodipodi:namedview
     id="base"
     pagecolor="#ffffff"
     bordercolor="#666666"
     borderopacity="1.0"
     inkscape:pageopacity="0.0"
     inkscape:pageshadow="2"
     inkscape:zoom="0.54179543"
     inkscape:cx="369.14302"
     inkscape:cy="81.791842"
     inkscape:document-units="mm"
     inkscape:current-layer="layer1"
     showgrid="false"
     inkscape:snap-global="false"
     fit-margin-top="0"
     fit-margin-left="0"
     fit-margin-right="0"
     fit-margin-bottom="0"
     inkscape:window-width="992"
     inkscape:window-height="739"
     inkscape:window-x="32"
     inkscape:window-y="0"
     inkscape:window-maximized="1" />
  <metadata
     id="metadata5">
    <rdf:RDF>
      <cc:Work
         rdf:about="">
        <dc:format>image/svg+xml</dc:format>
        <dc:type
           rdf:resource="http://purl.org/dc/dcmitype/StillImage" />
        <dc:title></dc:title>
      </cc:Work>
    </rdf:RDF>
  </metadata>
  <g
     inkscape:label="Layer 1"
     inkscape:groupmode="layer"
     id="layer1"
     transform="translate(0.13645178,-54.1895)">
    <g
       id="g9143"
       transform="rotate(81.894075,96.097395,106.17155)">
      <g
         id="g9125">
        <path
           style="fill:none;fill-rule:evenodd;stroke:#000000;stroke-width:0.26458332px;stroke-linecap:butt;stroke-linejoin:miter;stroke-opacity:1"
           d="M 39.309524,182.85119 142.875,55.851189 M 52.916667,41.488095 124.73214,203.2619"
           id="path8436"
           inkscape:connector-curvature="0" />
        <path
           style="opacity:0.98999999;fill:none;fill-rule:evenodd;stroke:#000000;stroke-width:1.96500003;stroke-linecap:butt;stroke-linejoin:miter;stroke-miterlimit:4;stroke-dasharray:none;stroke-opacity:1"
           d="m 55.990267,41.220825 c 0,0 8.197655,16.214076 12.84332,23.457452 4.233624,6.600932 12.053316,21.033031 21.502722,23.678865 9.449403,2.645833 24.946431,-13.98512 29.482141,-18.520833 4.53572,-4.535714 21.92262,-22.67857 21.92262,-22.67857"
           id="path8438"
           inkscape:connector-curvature="0"
           sodipodi:nodetypes="csssc" />
        <path
           sodipodi:nodetypes="csssc"
           inkscape:connector-curvature="0"
           id="path8440"
           d="m 119.80242,199.89775 c 0,0 -8.19765,-16.21408 -12.84332,-23.45746 -4.23362,-6.60093 -12.05331,-21.03303 -21.502719,-23.67886 -9.449403,-2.64583 -24.946432,13.98512 -29.482142,18.52083 -4.53572,4.53572 -21.92262,22.67857 -21.92262,22.67857"
           style="opacity:0.98999999;fill:none;fill-rule:evenodd;stroke:#000000;stroke-width:1.96500003;stroke-linecap:butt;stroke-linejoin:miter;stroke-miterlimit:4;stroke-dasharray:none;stroke-opacity:1" />
      </g>
      <g
         transform="translate(15.875,-31.75)"
         id="g9133">
        <path
           inkscape:connector-curvature="0"
           id="path9127"
           d="M 39.309524,182.85119 142.875,55.851189 M 52.916667,41.488095 124.73214,203.2619"
           style="fill:none;fill-rule:evenodd;stroke:#000000;stroke-width:0.26458332px;stroke-linecap:butt;stroke-linejoin:miter;stroke-opacity:1" />
        <path
           sodipodi:nodetypes="csssc"
           inkscape:connector-curvature="0"
           id="path9129"
           d="m 55.990267,41.220825 c 0,0 8.197655,16.214076 12.84332,23.457452 4.233624,6.600932 12.053316,21.033031 21.502722,23.678865 9.449403,2.645833 24.946431,-13.98512 29.482141,-18.520833 4.53572,-4.535714 21.92262,-22.67857 21.92262,-22.67857"
           style="opacity:0.98999999;fill:none;fill-rule:evenodd;stroke:#000000;stroke-width:1.96500003;stroke-linecap:butt;stroke-linejoin:miter;stroke-miterlimit:4;stroke-dasharray:none;stroke-opacity:1" />
        <path
           style="opacity:0.98999999;fill:none;fill-rule:evenodd;stroke:#000000;stroke-width:1.96500003;stroke-linecap:butt;stroke-linejoin:miter;stroke-miterlimit:4;stroke-dasharray:none;stroke-opacity:1"
           d="m 119.80242,199.89775 c 0,0 -8.19765,-16.21408 -12.84332,-23.45746 -4.23362,-6.60093 -12.05331,-21.03303 -21.502719,-23.67886 -9.449403,-2.64583 -24.946432,13.98512 -29.482142,18.52083 -4.53572,4.53572 -21.92262,22.67857 -21.92262,22.67857"
           id="path9131"
           inkscape:connector-curvature="0"
           sodipodi:nodetypes="csssc" />
      </g>
    </g>
  </g>
</svg>
